<?xml version="1.0" encoding="UTF-8"?>
<svg id="Capa_2" data-name="Capa 2" xmlns="http://www.w3.org/2000/svg" viewBox="0 0 340.04 206.34">
  <defs>
    <style>
      .cls-1 {
        fill: #353535;
        stroke-width: 0px;
      }
    </style>
  </defs>
  <g id="Capa_5" data-name="Capa 5">
    <g>
      <path class="cls-1" d="M337.52,111.96c-11.49-43.47-58.14-67.01-100.03-50.35-3.88,1.54-6.04,1.52-7.5-2.83-.94-2.8-2.69-5.34-4.18-7.93C204.25,13.57,159.31-6.86,117.41,2.09,78.18,10.47,52.16,34.09,38.95,71.89c-.95,2.73-2.1,4.89-4.83,6.52-39.62,23.71-45.81,76.18-12.94,108.58,12.87,12.68,27.55,19.8,46.36,19.32,32.12-.82,64.28-.23,96.42-.23,33.64,0,67.28,0,100.92,0,.33,0,.67,0,1,0,48.83-.61,84.1-46.95,71.62-94.12ZM74.94,169.09c-5.49-.12-10.04-4.98-9.77-10.44.26-5.3,4.91-9.64,10.18-9.52,5.49.12,10.04,4.98,9.77,10.43-.26,5.3-4.91,9.64-10.18,9.52ZM117.81,179.88c-1.98.46-2.61-.95-2.91-2.54-.81-4.21-3-7.24-7.57-7.12-4.49.11-6.74,2.98-7.27,7.37-.17,1.43-1.13,2.55-2.7,2.33-1.82-.26-2.18-1.72-2.17-3.37.07-5.86,6.1-11.47,12.33-11.42,6.33.05,12.29,5.75,12.13,11.6-.07,1.37-.26,2.79-1.84,3.16ZM129.16,36.22c-1.33-.05-2.66,0-3.99,0-18.2-.12-32.98,11.43-37.37,29.14-.2.81-.44,1.61-.58,2.42-.42,2.51-1.77,4.14-4.4,3.51-3.04-.74-2.88-3.26-2.33-5.66,4.17-18.35,15.33-30.14,33.4-35.33,5.02-1.44,10.19-1.38,15.35-1.09,2.42.14,4.92.64,4.91,3.75,0,3.31-2.53,3.36-5,3.26ZM150.1,159.75c-.37,5.29-5.1,9.56-10.36,9.34-5.49-.23-9.95-5.18-9.57-10.62.37-5.29,5.1-9.56,10.36-9.34,5.49.23,9.95,5.18,9.57,10.62ZM308.86,131.88c-3.4.25-3.63-2.54-3.82-5.2-1.52-20.56-15.48-34.64-36.17-36.48-2.49-.22-4.99-.45-4.93-3.59.08-3.5,2.86-3.51,5.47-3.46,22.07.39,42.35,20.81,42.66,42.98.08,2.58.13,5.5-3.22,5.75Z"/>
      <rect class="cls-1" x="68.26" y="153.09" width="7" height="7" rx="3.5" ry="3.5"/>
      <rect class="cls-1" x="135.26" y="151.09" width="7" height="7" rx="3.5" ry="3.5"/>
      <circle class="cls-1" cx="78.26" cy="157.09" r="2"/>
      <circle class="cls-1" cx="134.26" cy="159.09" r="2"/>
    </g>
  </g>
</svg>