<svg width="38" height="38" viewBox="0 0 38 38" fill="none" xmlns="http://www.w3.org/2000/svg">
<path d="M27.4375 25.25H9.15625C6.85156 25.25 4.86563 24.6383 3.41172 23.4813C1.75234 22.1594 0.875 20.1993 0.875 17.8125C0.875 15.7297 1.6625 13.9219 3.15156 12.5852C4.34219 11.5165 5.97734 10.7719 7.76094 10.4883C7.76562 10.4883 7.76719 10.4883 7.76797 10.4844C8.27109 7.43755 9.62969 4.85239 11.6984 3.00942C13.711 1.22444 16.3099 0.242271 19 0.250046C21.3617 0.250046 23.5687 0.983639 25.3836 2.3727C26.9702 3.6043 28.1946 5.24168 28.9273 7.11176C31.225 7.48833 33.2023 8.44848 34.6453 9.88833C36.2656 11.5086 37.125 13.6649 37.125 16.125C37.125 18.6915 36.0992 21.0368 34.2344 22.7282C32.4461 24.3547 30.0312 25.25 27.4375 25.25ZM7.36969 33.3201C6.79531 32.9372 6.6401 32.1611 7.02303 31.5867L9.52304 27.8367C9.90598 27.2623 10.6821 27.107 11.2565 27.49C11.8309 27.8729 11.9861 28.649 11.6032 29.2234L9.10316 32.9735C8.72021 33.5479 7.9441 33.7031 7.36969 33.3201ZM11.1195 37.0707C10.5451 36.6877 10.3898 35.9116 10.7728 35.3372L15.7729 27.837C16.1558 27.2626 16.9319 27.1073 17.5063 27.4903C18.0807 27.8732 18.2359 28.6493 17.853 29.2237L12.8529 36.7239C12.4699 37.2983 11.6939 37.4536 11.1195 37.0707ZM19.8691 33.3203C19.2946 32.9374 19.1394 32.1613 19.5224 31.5868L22.0224 27.8368C22.4054 27.2624 23.1814 27.1072 23.7558 27.4901C24.3303 27.873 24.4855 28.6491 24.1026 29.2236L21.6025 32.9736C21.2196 33.548 20.4435 33.7033 19.8691 33.3203ZM23.6188 37.0708C23.0444 36.6878 22.8892 35.9117 23.2721 35.3373L28.2723 27.8372C28.6552 27.2628 29.4313 27.1076 30.0057 27.4905C30.5801 27.8734 30.7353 28.6495 30.3524 29.2239L25.3523 36.7241C24.9693 37.2985 24.1932 37.4537 23.6188 37.0708Z" fill="white"/>
</svg>
