<svg width="36" height="24" viewBox="0 0 36 24" fill="none" xmlns="http://www.w3.org/2000/svg">
<path d="M27.1218 24H9.33508C6.8422 24 4.52172 23.143 2.80119 21.5857C1.01499 19.9691 0.03125 17.7273 0.03125 15.2728C0.03125 12.7787 0.947267 10.6282 2.68011 9.05324C3.91902 7.9262 5.5684 7.12712 7.41275 6.74394C7.58275 6.70888 7.74194 6.63402 7.87719 6.52554C8.01244 6.41707 8.11985 6.27809 8.19058 6.12007C8.84724 4.64681 9.83083 3.3413 11.0672 2.30191C12.876 0.797142 15.1158 9.9282e-05 17.5444 9.9282e-05C20.2762 -0.0117497 22.9052 1.03741 24.8739 2.92509C26.5657 4.54849 27.7129 6.69416 28.2383 9.19779C28.2805 9.4031 28.3811 9.59195 28.5281 9.74176C28.6752 9.89157 28.8624 9.996 29.0674 10.0426C32.1842 10.7332 35.0575 12.9839 35.0575 16.9091C35.0575 19.1857 34.2201 21.0532 32.635 22.3111C31.2422 23.4157 29.3363 24 27.1218 24Z" fill="white"/>
</svg>
